<?xml version="1.0" encoding="UTF-8"?>
<!-- Generator: Adobe Illustrator 24.0.1, SVG Export Plug-In . SVG Version: 6.00 Build 0)  -->
<svg xmlns="http://www.w3.org/2000/svg" xmlns:xlink="http://www.w3.org/1999/xlink" version="1.1" id="Icon_x5F_contour" x="0px" y="0px" viewBox="0 0 192 192" style="enable-background:new 0 0 192 192;" xml:space="preserve">
<path d="M144,112c-17.64502,0-32,14.35498-32,32s14.35498,32,32,32s32-14.35498,32-32S161.64502,112,144,112z M144,168  c-13.23389,0-24-10.76611-24-24s10.76611-24,24-24s24,10.76611,24,24S157.23389,168,144,168z M148,140h12v8h-12v12h-8v-12h-12v-8h12  v-12h8V140z M116.98322,114.53296c-5.22375-14.61908-16.7829-26.03845-31.06976-31.32288  C96.71045,76.99268,104,65.34857,104,52.02783c0-19.83545-16.1499-35.97266-36.00049-35.97266s-36,16.13721-36,35.97266  c0,13.30859,7.27606,24.94366,18.05664,31.16528C30.19861,90.51685,16,109.63062,16,132h8c0-24.26172,19.73828-44,43.99951-44  c20.31708,0,38.09625,14.11115,42.78693,33.7356C112.56244,119.09473,114.64581,116.67773,116.98322,114.53296z M39.99951,52.02783  c0-15.42432,12.56055-27.97266,28-27.97266S96,36.60352,96,52.02783C96,67.45166,83.43896,80,67.99951,80  S39.99951,67.45166,39.99951,52.02783z" style="fill: #ffffff;"/>
<g>
</g>
<g>
</g>
<g>
</g>
<g>
</g>
<g>
</g>
<g>
</g>
<g>
</g>
<g>
</g>
<g>
</g>
<g>
</g>
<g>
</g>
<g>
</g>
<g>
</g>
<g>
</g>
<g>
</g>
</svg>
