<svg width="1213" height="349" viewBox="0 0 1213 349" fill="none" xmlns="http://www.w3.org/2000/svg">
<rect x="97.6958" y="70" width="18.9091" height="208" rx="1" fill="#969696"/>
<circle cx="107.151" cy="114.121" r="22.0606" fill="white"/>
<path d="M0 96.2114C0 95.6591 0.447715 95.2114 1 95.2114H68.3333C68.8856 95.2114 69.3333 95.6591 69.3333 96.2114V128.878C69.3333 129.43 68.8856 129.878 68.3333 129.878H1C0.447715 129.878 0 129.43 0 128.878V96.2114Z" fill="white"/>
<path d="M69.3328 98.3633L75.6358 101.515L69.3328 104.666V98.3633Z" fill="white"/>
<circle cx="107.151" cy="237.029" r="22.0606" fill="white"/>
<path d="M0 219.121C0 218.568 0.447715 218.121 1 218.121H68.3333C68.8856 218.121 69.3333 218.568 69.3333 219.121V251.787C69.3333 252.34 68.8856 252.787 68.3333 252.787H1C0.447715 252.787 0 252.34 0 251.787V219.121Z" fill="white"/>
<path d="M69.3328 221.272L75.6358 224.423L69.3328 227.575V221.272Z" fill="white"/>
<circle cx="107.151" cy="173.999" r="22.0606" fill="white"/>
<path d="M211.151 162.394C211.151 161.841 210.703 161.394 210.151 161.394H142.818C142.266 161.394 141.818 161.841 141.818 162.394V195.06C141.818 195.613 142.266 196.06 142.818 196.06H210.151C210.703 196.06 211.151 195.613 211.151 195.06V162.394Z" fill="white"/>
<path d="M141.818 164.545L135.515 167.697L141.818 170.848V164.545Z" fill="white"/>
<path d="M306.797 274.357C283.612 274.357 265.037 270.866 251.072 263.883C238.092 257.438 227.887 247.546 220.457 234.208L265.843 212.187C269.602 220.333 275.063 225.928 282.224 228.971C287.774 231.388 295.428 232.597 305.186 232.597C314.854 232.597 322.239 230.896 327.342 227.494C331.817 224.54 334.055 220.556 334.055 215.543C334.055 210.709 331.952 206.905 327.744 204.13C323.627 201.355 316.465 199.027 306.26 197.147C292.027 194.372 281.374 191.955 274.302 189.896C267.32 187.838 260.919 185.197 255.1 181.974C237.465 172.217 228.648 156.148 228.648 133.769C228.648 113 236.122 97.0661 251.072 85.9658C264.142 76.2083 281.419 71.3296 302.903 71.3296C340.143 71.3296 366.461 83.7279 381.858 108.524L339.561 130.277C335.443 123.832 330.743 119.356 325.462 116.85C320.18 114.343 312.84 113.09 303.44 113.09C287.148 113.09 279.002 118.148 279.002 128.263C279.002 133.008 281.016 136.723 285.044 139.408C289.073 142.004 296.413 144.332 307.066 146.391C322.642 149.345 334.279 152.03 341.978 154.447C349.766 156.775 356.48 159.684 362.119 163.175C378.054 173.022 386.021 188.598 386.021 209.904C386.021 232.104 378.277 248.755 362.791 259.855C349.274 269.523 330.609 274.357 306.797 274.357ZM418.919 74.418H473.032V150.553L530.235 74.418H589.317L523.924 158.207L594.822 271H534.934L488.474 198.759L473.032 217.96V271H418.919V74.418ZM622.215 74.418H676.328V271H622.215V74.418ZM722.385 74.418H776.499V227.494H857.737V271H722.385V74.418ZM884.324 74.418H938.438V227.494H1019.68V271H884.324V74.418ZM1122.4 274.357C1099.21 274.357 1080.64 270.866 1066.67 263.883C1053.69 257.438 1043.49 247.546 1036.06 234.208L1081.44 212.187C1085.2 220.333 1090.66 225.928 1097.82 228.971C1103.38 231.388 1111.03 232.597 1120.79 232.597C1130.45 232.597 1137.84 230.896 1142.94 227.494C1147.42 224.54 1149.66 220.556 1149.66 215.543C1149.66 210.709 1147.55 206.905 1143.34 204.13C1139.23 201.355 1132.07 199.027 1121.86 197.147C1107.63 194.372 1096.97 191.955 1089.9 189.896C1082.92 187.838 1076.52 185.197 1070.7 181.974C1053.07 172.217 1044.25 156.148 1044.25 133.769C1044.25 113 1051.72 97.0661 1066.67 85.9658C1079.74 76.2083 1097.02 71.3296 1118.5 71.3296C1155.74 71.3296 1182.06 83.7279 1197.46 108.524L1155.16 130.277C1151.04 123.832 1146.34 119.356 1141.06 116.85C1135.78 114.343 1128.44 113.09 1119.04 113.09C1102.75 113.09 1094.6 118.148 1094.6 128.263C1094.6 133.008 1096.62 136.723 1100.64 139.408C1104.67 142.004 1112.01 144.332 1122.67 146.391C1138.24 149.345 1149.88 152.03 1157.58 154.447C1165.37 156.775 1172.08 159.684 1177.72 163.175C1193.65 173.022 1201.62 188.598 1201.62 209.904C1201.62 232.104 1193.88 248.755 1178.39 259.855C1164.87 269.523 1146.21 274.357 1122.4 274.357Z" fill="white"/>
</svg>
