<svg width="204" height="200" viewBox="0 0 204 200" fill="none" xmlns="http://www.w3.org/2000/svg">
<rect x="93.9395" width="18.1818" height="200" rx="1" fill="#D9D9D9"/>
<circle cx="103.03" cy="42.424" r="21.2121" fill="#007BC0"/>
<path d="M0 25.2422C0 24.6899 0.447715 24.2422 1 24.2422H65.6667C66.2189 24.2422 66.6667 24.6899 66.6667 25.2422V56.5755C66.6667 57.1278 66.2189 57.5755 65.6667 57.5755H0.999999C0.447714 57.5755 0 57.1278 0 56.5755V25.2422Z" fill="#007BC0"/>
<path d="M66.6666 27.2725L72.7272 30.3028L66.6666 33.3331V27.2725Z" fill="#007BC0"/>
<circle cx="103.03" cy="160.606" r="21.2121" fill="#9E2896"/>
<path d="M0 143.424C0 142.872 0.447715 142.424 1 142.424H65.6667C66.2189 142.424 66.6667 142.872 66.6667 143.424V174.758C66.6667 175.31 66.2189 175.758 65.6667 175.758H0.999999C0.447714 175.758 0 175.31 0 174.758V143.424Z" fill="#9E2896"/>
<path d="M66.6666 145.455L72.7272 148.485L66.6666 151.515V145.455Z" fill="#9E2896"/>
<circle cx="103.03" cy="100" r="21.2121" fill="#18837E"/>
<path d="M203.03 88.8789C203.03 88.3266 202.583 87.8789 202.03 87.8789H137.364C136.811 87.8789 136.364 88.3266 136.364 88.8789V120.212C136.364 120.765 136.811 121.212 137.364 121.212H202.03C202.583 121.212 203.03 120.765 203.03 120.212V88.8789Z" fill="#18837E"/>
<path d="M136.364 90.9092L130.303 93.9395L136.364 96.9698V90.9092Z" fill="#18837E"/>
</svg>
